<?xml version="1.0" encoding="UTF-8"?>
<svg id="Layer_2" data-name="Layer 2" xmlns="http://www.w3.org/2000/svg" viewBox="0 0 350.01 225">
  <defs>
    <style>
      .cls-1 {
        fill: #e6e6e6;
        stroke-width: 0px;
      }
    </style>
  </defs>
  <g id="Layer_1-2" data-name="Layer 1">
    <path class="cls-1" d="m350.01,65V20c0-11.03-8.97-20-20-20h-20c-11.03,0-20,8.97-20,20v35h-20V10c0-5.52-4.48-10-10-10s-10,4.48-10,10v15h-.01v-.43c-.22-13.6-11.32-24.57-24.99-24.57h-75.01c-13.65,0-24.75,10.95-25,24.54,0,.16,0,.31,0,.46h0c0-13.8-11.19-25-25-25h-50C22.43,0,0,22.43,0,50v125c0,27.57,22.43,50,50,50h50c13.81,0,25-11.19,25-25h.01v.43c.22,13.61,11.32,24.57,24.99,24.57h74.45c13.85,0,25.54-11.21,25.56-25h0v5c0,11.03,8.97,20,20,20h20.66c10.92,0,19.81-8.79,19.99-19.66v-7.84c0-5.52-4.48-10-10-10s-10,4.48-10,10v7.5h-20.65v-35h60v45c0,5.54,4.47,10,10,10s10-4.46,10-10v-45c0-9.88-7.21-18.09-16.64-19.7h6.64c5.73,0,10.35-4.82,9.98-10.65-.33-5.32-4.99-9.35-10.32-9.35h-50.77l-18.13-18.13,17.49-17.48h51.75c5.73,0,10.35-4.82,9.98-10.65-.29-4.68-3.93-8.36-8.43-9.18,4.78-.74,8.45-4.87,8.45-9.87Zm-40-10V20h20v45c0,4.7,3.23,8.62,7.58,9.7h-44.23c9.43-1.6,16.64-9.81,16.64-19.7ZM50,175v-37.5h50c13.81,0,25-11.19,25-25s-11.19-25-25-25h-50v-37.5h143.22c-21.72,39.8-66.87,123.06-67.38,125H50Zm205.31-50l25,25h-10.3c-11.03,0-20,8.97-20,20v5h-67.23l64.24-119.46c.95-1.76,1.67-3.62,2.17-5.54h.82v5c0,11.03,8.97,20,20,20h9.67l-24.37,24.39c-3.39,3.4-5.3,8-5.3,12.8h0c0,4.8,1.91,9.41,5.31,12.81Z"/>
  </g>
</svg>